<svg xmlns="http://www.w3.org/2000/svg" width="593" height="593" viewBox="0 0 593 593"><path d="M313.045 353.02c32.96 0 32.827 0 48.579-27.929 8.206-14.561 16.016-29.386 25.414-43.151 7.545-10.854 5.427-20.649 0-30.313-10.986-19.59-23.032-38.519-34.019-58.108-4.5-8.074-9.662-12.311-19.59-12.045-12.311.265-61.683.265-73.992 0-9.928-.266-15.09 3.971-19.591 12.045-10.986 19.59-22.899 38.519-34.018 58.108-5.56 9.795-7.545 19.458 0 30.313 9.53 13.633 17.207 28.591 25.414 43.151 15.752 27.929 15.619 28.062 48.578 27.929h33.225zm-133.16-112.379c11.648-22.104 23.826-43.945 36.137-65.653 3.441-6.222 3.838-11.384 0-17.869-14.561-24.885-28.856-50.035-42.887-75.316-3.706-6.751-6.883-7.413-13.369-3.839-27.003 14.692-54.138 29.12-81.67 43.284-9.928 5.029-14.428 12.31-13.236 23.164 3.573 33.753 7.147 67.374 11.251 101.127.265 2.383 4.633 5.824 7.147 5.957 17.208.529 67.375.794 74.919 1.588 10.59.794 16.811-3.309 21.708-12.443zm62.742-97.951c3.706 6.751 8.604 8.34 15.619 8.207 6.354-.132 70.153-.132 76.507 0 7.016.133 11.913-1.456 15.619-8.207 14.031-25.414 28.459-50.431 43.02-75.448 3.309-5.56 3.177-9.001-2.912-12.178-27.93-14.561-55.858-29.385-83.655-44.21-3.574-1.985-6.883-2.912-10.324-2.912h0c-3.441 0-6.751.927-10.325 2.779-27.797 14.825-55.726 29.65-83.655 44.211-6.221 3.177-6.221 6.618-2.912 12.178 14.559 25.017 28.987 50.166 43.018 75.58zm-26.076 218.802c-12.311-23.164-25.149-46.063-38.254-68.698-2.25-3.839-7.28-8.604-11.251-8.604-26.605-.794-53.344-.397-80.876-.397 15.619 64.859 44.21 121.645 82.332 177.106 17.34-30.18 33.621-58.374 49.372-86.833 1.589-3.177.53-9.133-1.323-12.574zm298.353-240.244c-27.399-14.031-54.667-28.592-81.67-43.284-6.618-3.574-9.662-2.912-13.369 3.839-13.898 25.281-28.193 50.432-42.886 75.316-3.839 6.485-3.442 11.647 0 17.869 12.31 21.841 24.487 43.549 36.136 65.653 4.765 9.134 10.986 13.236 21.443 12.178 7.677-.794 57.711-1.059 74.919-1.588 2.515-.133 6.883-3.574 7.147-5.957 4.104-33.621 7.678-67.374 11.251-101.128 1.324-10.721-3.177-17.869-12.971-22.898zM425.953 284.19c-3.838.132-9 4.765-11.251 8.604-13.236 22.635-25.943 45.534-38.254 68.698-1.853 3.441-2.912 9.397-1.19 12.442 15.619 28.459 32.032 56.652 49.372 86.832 38.121-55.461 66.58-112.246 82.332-177.105-27.665.132-54.402-.265-81.009.529zm-75.581 107.482c-3.309-5.824-7.412-7.942-13.898-7.81-13.368.132-66.579.132-79.816 0-6.485 0-10.589 1.985-13.898 7.81-16.413 29.12-32.959 58.241-49.77 87.097-3.971 6.751-2.912 11.251 1.985 16.811 26.209 30.18 54.8 57.977 86.567 82.464 6.089 4.633 10.59 7.016 15.09 7.016h0c4.501 0 9.001-2.25 15.09-7.016 31.768-24.355 60.358-52.152 86.567-82.464 4.897-5.691 5.956-10.192 1.985-16.811-17.075-28.856-33.62-57.977-49.902-87.097z" fill="#F2F1F0" stroke="#F2F1F0" stroke-width="5" stroke-linecap="round" stroke-linejoin="round" stroke-miterlimit="10"/></svg>